<svg width="204" height="120" viewBox="0 0 204 120" fill="none" xmlns="http://www.w3.org/2000/svg">
<path d="M0 94.8203L147 94.8306L147.005 26.8306L0.0047473 26.8203L0 94.8203Z" fill="#13A6EC"/>
<path d="M203.642 60.0358L117.616 119.162L118.249 0L203.642 60.0358Z" fill="#13A6EC"/>
<path d="M16.1523 54.126H22.2847V56H13.8052V42.4922H16.1523V54.126ZM23.4443 50.8882C23.4443 49.9048 23.6392 49.0203 24.0288 48.2349C24.4185 47.4432 24.9658 46.8371 25.6709 46.4165C26.376 45.9897 27.1862 45.7764 28.1016 45.7764C29.4561 45.7764 30.5539 46.2124 31.395 47.0845C32.2424 47.9565 32.7 49.1131 32.7681 50.5542L32.7773 51.083C32.7773 52.0726 32.5856 52.957 32.2021 53.7363C31.8249 54.5156 31.2806 55.1187 30.5693 55.5454C29.8643 55.9722 29.0479 56.1855 28.1201 56.1855C26.7038 56.1855 25.5688 55.7155 24.7153 54.7754C23.868 53.8291 23.4443 52.5705 23.4443 50.9995V50.8882ZM25.6987 51.083C25.6987 52.1159 25.9121 52.9261 26.3389 53.5137C26.7656 54.0951 27.3594 54.3857 28.1201 54.3857C28.8809 54.3857 29.4715 54.0889 29.8921 53.4951C30.3188 52.9014 30.5322 52.0324 30.5322 50.8882C30.5322 49.8739 30.3127 49.0698 29.8735 48.4761C29.4406 47.8823 28.8499 47.5854 28.1016 47.5854C27.3656 47.5854 26.7811 47.8792 26.3481 48.4668C25.9152 49.0482 25.6987 49.9202 25.6987 51.083ZM40.3105 53.2725C40.3105 52.8704 40.1436 52.5643 39.8096 52.354C39.4818 52.1437 38.9344 51.9582 38.1675 51.7974C37.4006 51.6366 36.7604 51.4325 36.2471 51.1851C35.1214 50.6408 34.5586 49.8522 34.5586 48.8193C34.5586 47.9535 34.9235 47.2298 35.6533 46.6484C36.3831 46.0671 37.3109 45.7764 38.4365 45.7764C39.6364 45.7764 40.6043 46.0732 41.3403 46.667C42.0825 47.2607 42.4536 48.0308 42.4536 48.9771H40.1992C40.1992 48.5441 40.0384 48.1854 39.7168 47.9009C39.3952 47.6102 38.9684 47.4648 38.4365 47.4648C37.9417 47.4648 37.5366 47.5793 37.2212 47.8081C36.9119 48.0369 36.7573 48.3431 36.7573 48.7266C36.7573 49.0729 36.9027 49.342 37.1934 49.5337C37.484 49.7254 38.0716 49.9202 38.9561 50.1182C39.8405 50.3099 40.5332 50.5418 41.0342 50.814C41.5413 51.0799 41.9155 51.4015 42.1567 51.7788C42.4041 52.1561 42.5278 52.6138 42.5278 53.1519C42.5278 54.0549 42.1536 54.7878 41.4053 55.3506C40.6569 55.9072 39.6766 56.1855 38.4644 56.1855C37.6418 56.1855 36.9089 56.0371 36.2656 55.7402C35.6224 55.4434 35.1214 55.0352 34.7627 54.5156C34.404 53.9961 34.2246 53.4364 34.2246 52.8364H36.4141C36.445 53.3683 36.646 53.7796 37.0171 54.0703C37.3882 54.3548 37.8799 54.4971 38.4922 54.4971C39.0859 54.4971 39.5374 54.3857 39.8467 54.1631C40.1559 53.9342 40.3105 53.6374 40.3105 53.2725ZM50.5806 55.0166C49.9188 55.7959 48.9787 56.1855 47.7603 56.1855C46.6717 56.1855 45.846 55.867 45.2832 55.23C44.7266 54.5929 44.4482 53.6714 44.4482 52.4653V45.9619H46.7026V52.4375C46.7026 53.7116 47.2314 54.3486 48.2891 54.3486C49.3838 54.3486 50.1229 53.9559 50.5063 53.1704V45.9619H52.7607V56H50.6362L50.5806 55.0166ZM57.4087 45.9619V56.8906C57.4087 57.9173 57.152 58.6997 56.6387 59.2378C56.1315 59.7821 55.3862 60.0542 54.4028 60.0542C53.9884 60.0542 53.5895 60.0016 53.2061 59.8965V58.1152C53.4411 58.1709 53.707 58.1987 54.0039 58.1987C54.7523 58.1987 55.1357 57.7905 55.1543 56.9741V45.9619H57.4087ZM54.9595 43.355C54.9595 43.0086 55.0677 42.721 55.2842 42.4922C55.5068 42.2633 55.8223 42.1489 56.2305 42.1489C56.6387 42.1489 56.9541 42.2633 57.1768 42.4922C57.3994 42.721 57.5107 43.0086 57.5107 43.355C57.5107 43.6951 57.3994 43.9797 57.1768 44.2085C56.9541 44.4312 56.6387 44.5425 56.2305 44.5425C55.8223 44.5425 55.5068 44.4312 55.2842 44.2085C55.0677 43.9797 54.9595 43.6951 54.9595 43.355ZM67.8179 51.6953L66.8159 52.7251V56H64.5615V41.75H66.8159V49.9697L67.521 49.0884L70.2949 45.9619H73.0039L69.2744 50.146L73.4028 56H70.7959L67.8179 51.6953ZM74.0615 50.8882C74.0615 49.9048 74.2563 49.0203 74.646 48.2349C75.0356 47.4432 75.583 46.8371 76.2881 46.4165C76.9932 45.9897 77.8034 45.7764 78.7188 45.7764C80.0732 45.7764 81.1711 46.2124 82.0122 47.0845C82.8595 47.9565 83.3172 49.1131 83.3853 50.5542L83.3945 51.083C83.3945 52.0726 83.2028 52.957 82.8193 53.7363C82.4421 54.5156 81.8978 55.1187 81.1865 55.5454C80.4814 55.9722 79.665 56.1855 78.7373 56.1855C77.321 56.1855 76.186 55.7155 75.3325 54.7754C74.4852 53.8291 74.0615 52.5705 74.0615 50.9995V50.8882ZM76.3159 51.083C76.3159 52.1159 76.5293 52.9261 76.9561 53.5137C77.3828 54.0951 77.9766 54.3857 78.7373 54.3857C79.498 54.3857 80.0887 54.0889 80.5093 53.4951C80.936 52.9014 81.1494 52.0324 81.1494 50.8882C81.1494 49.8739 80.9299 49.0698 80.4907 48.4761C80.0578 47.8823 79.4671 47.5854 78.7188 47.5854C77.9827 47.5854 77.3983 47.8792 76.9653 48.4668C76.5324 49.0482 76.3159 49.9202 76.3159 51.083ZM87.6992 56H85.4448V41.75H87.6992V56ZM94.583 56.1855C93.1543 56.1855 91.9946 55.7371 91.104 54.8403C90.2196 53.9373 89.7773 52.7375 89.7773 51.2407V50.9624C89.7773 49.9604 89.9691 49.0667 90.3525 48.2812C90.7422 47.4896 91.2865 46.8742 91.9854 46.4351C92.6842 45.9959 93.4635 45.7764 94.3232 45.7764C95.6901 45.7764 96.7446 46.2124 97.4868 47.0845C98.2352 47.9565 98.6094 49.1904 98.6094 50.7861V51.6953H92.0503C92.1183 52.5241 92.3936 53.1797 92.876 53.6621C93.3646 54.1445 93.9769 54.3857 94.7129 54.3857C95.7458 54.3857 96.5869 53.9683 97.2363 53.1333L98.4517 54.293C98.0496 54.8929 97.5116 55.3599 96.8374 55.6938C96.1694 56.0216 95.418 56.1855 94.583 56.1855ZM94.314 47.5854C93.6955 47.5854 93.1945 47.8019 92.811 48.2349C92.4338 48.6678 92.1925 49.2708 92.0874 50.0439H96.3828V49.877C96.3333 49.1224 96.1323 48.5534 95.7798 48.1699C95.4272 47.7803 94.9386 47.5854 94.314 47.5854ZM102.719 45.9619V56.8906C102.719 57.9173 102.463 58.6997 101.949 59.2378C101.442 59.7821 100.697 60.0542 99.7134 60.0542C99.299 60.0542 98.9001 60.0016 98.5166 59.8965V58.1152C98.7516 58.1709 99.0176 58.1987 99.3145 58.1987C100.063 58.1987 100.446 57.7905 100.465 56.9741V45.9619H102.719ZM100.27 43.355C100.27 43.0086 100.378 42.721 100.595 42.4922C100.817 42.2633 101.133 42.1489 101.541 42.1489C101.949 42.1489 102.265 42.2633 102.487 42.4922C102.71 42.721 102.821 43.0086 102.821 43.355C102.821 43.6951 102.71 43.9797 102.487 44.2085C102.265 44.4312 101.949 44.5425 101.541 44.5425C101.133 44.5425 100.817 44.4312 100.595 44.2085C100.378 43.9797 100.27 43.6951 100.27 43.355ZM107.228 45.9619L107.293 47.1216C108.035 46.2248 109.009 45.7764 110.215 45.7764C112.306 45.7764 113.37 46.9731 113.407 49.3667V56H111.152V49.4966C111.152 48.8595 111.013 48.3895 110.735 48.0864C110.463 47.7772 110.014 47.6226 109.39 47.6226C108.48 47.6226 107.803 48.0339 107.358 48.8564V56H105.104V45.9619H107.228ZM121.673 55.9351C121.605 55.7804 121.531 55.4897 121.45 55.063C120.733 55.8114 119.854 56.1855 118.815 56.1855C117.807 56.1855 116.985 55.8979 116.348 55.3228C115.711 54.7476 115.392 54.0363 115.392 53.189C115.392 52.119 115.788 51.2995 116.58 50.7305C117.377 50.1553 118.515 49.8677 119.994 49.8677H121.376V49.209C121.376 48.6895 121.231 48.2751 120.94 47.9658C120.649 47.6504 120.207 47.4927 119.613 47.4927C119.1 47.4927 118.679 47.6226 118.352 47.8823C118.024 48.1359 117.86 48.4606 117.86 48.8564H115.605C115.605 48.306 115.788 47.7926 116.153 47.3164C116.518 46.834 117.013 46.4567 117.637 46.1846C118.268 45.9124 118.97 45.7764 119.743 45.7764C120.918 45.7764 121.855 46.0732 122.554 46.667C123.253 47.2546 123.612 48.0833 123.63 49.1533V53.6807C123.63 54.5837 123.757 55.3042 124.011 55.8423V56H123.621C123.083 56.3464 122.7 56.6649 122.471 56.9556C122.242 57.2463 122.127 57.5431 122.127 57.8462C122.127 58.2668 122.347 58.4771 122.786 58.4771C123.058 58.4771 123.337 58.4059 123.621 58.2637L123.816 59.5811C123.364 59.8532 122.854 59.9893 122.285 59.9893C121.698 59.9893 121.224 59.8192 120.866 59.479C120.507 59.1388 120.328 58.6873 120.328 58.1245C120.328 57.2586 120.776 56.5288 121.673 55.9351ZM119.233 54.3765C119.678 54.3765 120.096 54.2682 120.485 54.0518C120.881 53.8353 121.178 53.5446 121.376 53.1797V51.2871H120.161C119.326 51.2871 118.698 51.4325 118.277 51.7231C117.857 52.0138 117.646 52.4251 117.646 52.957C117.646 53.39 117.789 53.7363 118.073 53.9961C118.364 54.2497 118.75 54.3765 119.233 54.3765ZM50.1909 73.6953L49.189 74.7251V78H46.9346V63.75H49.189V71.9697L49.894 71.0884L52.668 67.9619H55.377L51.6475 72.146L55.7759 78H53.1689L50.1909 73.6953ZM62.4834 75.2725C62.4834 74.8704 62.3164 74.5643 61.9824 74.354C61.6546 74.1437 61.1073 73.9582 60.3403 73.7974C59.5734 73.6366 58.9333 73.4325 58.4199 73.1851C57.2943 72.6408 56.7314 71.8522 56.7314 70.8193C56.7314 69.9535 57.0964 69.2298 57.8262 68.6484C58.556 68.0671 59.4837 67.7764 60.6094 67.7764C61.8092 67.7764 62.7772 68.0732 63.5132 68.667C64.2554 69.2607 64.6265 70.0308 64.6265 70.9771H62.3721C62.3721 70.5441 62.2113 70.1854 61.8896 69.9009C61.568 69.6102 61.1413 69.4648 60.6094 69.4648C60.1146 69.4648 59.7095 69.5793 59.394 69.8081C59.0848 70.0369 58.9302 70.3431 58.9302 70.7266C58.9302 71.0729 59.0755 71.342 59.3662 71.5337C59.6569 71.7254 60.2445 71.9202 61.1289 72.1182C62.0133 72.3099 62.7061 72.5418 63.207 72.814C63.7142 73.0799 64.0884 73.4015 64.3296 73.7788C64.577 74.1561 64.7007 74.6138 64.7007 75.1519C64.7007 76.0549 64.3265 76.7878 63.5781 77.3506C62.8298 77.9072 61.8494 78.1855 60.6372 78.1855C59.8146 78.1855 59.0817 78.0371 58.4385 77.7402C57.7952 77.4434 57.2943 77.0352 56.9355 76.5156C56.5768 75.9961 56.3975 75.4364 56.3975 74.8364H58.5869C58.6178 75.3683 58.8188 75.7796 59.1899 76.0703C59.561 76.3548 60.0527 76.4971 60.665 76.4971C61.2588 76.4971 61.7103 76.3857 62.0195 76.1631C62.3288 75.9342 62.4834 75.6374 62.4834 75.2725ZM69.0703 78H66.8159V67.9619H69.0703V78ZM66.6768 65.355C66.6768 65.0086 66.785 64.721 67.0015 64.4922C67.2241 64.2633 67.5396 64.1489 67.9478 64.1489C68.356 64.1489 68.6714 64.2633 68.894 64.4922C69.1167 64.721 69.228 65.0086 69.228 65.355C69.228 65.6951 69.1167 65.9797 68.894 66.2085C68.6714 66.4312 68.356 66.5425 67.9478 66.5425C67.5396 66.5425 67.2241 66.4312 67.0015 66.2085C66.785 65.9797 66.6768 65.6951 66.6768 65.355ZM79.8228 76.293C79.3713 76.9486 78.7961 77.4341 78.0972 77.7495C77.5591 78.0959 77.1756 78.4144 76.9468 78.7051C76.7179 78.9958 76.6035 79.2926 76.6035 79.5957C76.6035 80.0163 76.8231 80.2266 77.2622 80.2266C77.5343 80.2266 77.8127 80.1554 78.0972 80.0132L78.292 81.3306C77.8405 81.6027 77.3302 81.7388 76.7612 81.7388C76.1737 81.7388 75.7005 81.5687 75.3418 81.2285C74.9831 80.8883 74.8037 80.4368 74.8037 79.874C74.8037 79.2432 75.0511 78.6742 75.5459 78.167C74.2656 78.0866 73.2204 77.6227 72.4102 76.7754C71.6061 75.9219 71.1855 74.8302 71.1484 73.5005V72.9624C71.1484 71.9604 71.3402 71.0667 71.7236 70.2812C72.1133 69.4896 72.6576 68.8742 73.3564 68.4351C74.0553 67.9959 74.8346 67.7764 75.6943 67.7764C77.0612 67.7764 78.1157 68.2124 78.8579 69.0845C79.6063 69.9565 79.9805 71.1904 79.9805 72.7861V73.6953H73.4214C73.4894 74.5241 73.7646 75.1797 74.2471 75.6621C74.7357 76.1445 75.348 76.3857 76.084 76.3857C77.1169 76.3857 77.958 75.9683 78.6074 75.1333L79.8228 76.293ZM75.6851 69.5854C75.0666 69.5854 74.5656 69.8019 74.1821 70.2349C73.8049 70.6678 73.5636 71.2708 73.4585 72.0439H77.7539V71.877C77.7044 71.1224 77.5034 70.5534 77.1509 70.1699C76.7983 69.7803 76.3097 69.5854 75.6851 69.5854ZM81.3442 72.9067C81.3442 71.3481 81.7091 70.105 82.439 69.1772C83.175 68.2433 84.1491 67.7764 85.3613 67.7764C86.5055 67.7764 87.4054 68.1753 88.061 68.9731L88.1631 67.9619H90.1948V77.6938C90.1948 79.0112 89.7835 80.0503 88.9609 80.811C88.1445 81.5718 87.0405 81.9521 85.6489 81.9521C84.9129 81.9521 84.1924 81.7975 83.4873 81.4883C82.7884 81.1852 82.2565 80.7863 81.8916 80.2915L82.9585 78.937C83.6512 79.7596 84.5047 80.1709 85.519 80.1709C86.2674 80.1709 86.8581 79.9668 87.291 79.5586C87.724 79.1566 87.9404 78.5628 87.9404 77.7773V77.1001C87.291 77.8237 86.4251 78.1855 85.3428 78.1855C84.1676 78.1855 83.2059 77.7186 82.4575 76.7847C81.7153 75.8507 81.3442 74.5581 81.3442 72.9067ZM83.5894 73.1016C83.5894 74.1097 83.7935 74.9045 84.2017 75.4858C84.616 76.061 85.1882 76.3486 85.918 76.3486C86.8271 76.3486 87.5013 75.959 87.9404 75.1797V70.7637C87.5137 70.0029 86.8457 69.6226 85.9365 69.6226C85.1943 69.6226 84.616 69.9163 84.2017 70.5039C83.7935 71.0915 83.5894 71.9574 83.5894 73.1016ZM94.917 78H92.6626V67.9619H94.917V78ZM92.5234 65.355C92.5234 65.0086 92.6317 64.721 92.8481 64.4922C93.0708 64.2633 93.3862 64.1489 93.7944 64.1489C94.2026 64.1489 94.5181 64.2633 94.7407 64.4922C94.9634 64.721 95.0747 65.0086 95.0747 65.355C95.0747 65.6951 94.9634 65.9797 94.7407 66.2085C94.5181 66.4312 94.2026 66.5425 93.7944 66.5425C93.3862 66.5425 93.0708 66.4312 92.8481 66.2085C92.6317 65.9797 92.5234 65.6951 92.5234 65.355Z" fill="white"/>
</svg>
