<svg width="204" height="120" viewBox="0 0 204 120" fill="none" xmlns="http://www.w3.org/2000/svg">
<path d="M204 25H57V93H204V25Z" fill="#13A6EC"/>
<path d="M0.360352 59.7981L86.3819 0.666016L85.7578 119.828L0.360352 59.7981Z" fill="#13A6EC"/>
<path d="M113.154 38.6602L115.232 28.4922H117.561L114.444 42H112.199L109.629 32.1382L107.003 42H104.749L101.632 28.4922H103.96L106.057 38.6416L108.636 28.4922H110.603L113.154 38.6602ZM124.111 34.0215C123.814 33.972 123.508 33.9473 123.192 33.9473C122.16 33.9473 121.464 34.3431 121.105 35.1348V42H118.851V31.9619H121.003L121.059 33.0845C121.603 32.2124 122.357 31.7764 123.322 31.7764C123.644 31.7764 123.91 31.8197 124.12 31.9062L124.111 34.0215ZM124.779 36.8882C124.779 35.9048 124.974 35.0203 125.363 34.2349C125.753 33.4432 126.3 32.8371 127.005 32.4165C127.71 31.9897 128.521 31.7764 129.436 31.7764C130.791 31.7764 131.888 32.2124 132.729 33.0845C133.577 33.9565 134.035 35.1131 134.103 36.5542L134.112 37.083C134.112 38.0726 133.92 38.957 133.537 39.7363C133.159 40.5156 132.615 41.1187 131.904 41.5454C131.199 41.9722 130.382 42.1855 129.455 42.1855C128.038 42.1855 126.903 41.7155 126.05 40.7754C125.202 39.8291 124.779 38.5705 124.779 36.9995V36.8882ZM127.033 37.083C127.033 38.1159 127.247 38.9261 127.673 39.5137C128.1 40.0951 128.694 40.3857 129.455 40.3857C130.215 40.3857 130.806 40.0889 131.227 39.4951C131.653 38.9014 131.867 38.0324 131.867 36.8882C131.867 35.8739 131.647 35.0698 131.208 34.4761C130.775 33.8823 130.184 33.5854 129.436 33.5854C128.7 33.5854 128.116 33.8792 127.683 34.4668C127.25 35.0482 127.033 35.9202 127.033 37.083ZM130.058 27.75H132.627L130.058 30.561H128.249L130.058 27.75ZM140.142 40.3857C140.705 40.3857 141.172 40.2218 141.543 39.894C141.914 39.5662 142.112 39.1611 142.137 38.6787H144.261C144.236 39.3034 144.042 39.8879 143.677 40.4321C143.312 40.9702 142.817 41.397 142.192 41.7124C141.568 42.0278 140.894 42.1855 140.17 42.1855C138.766 42.1855 137.653 41.731 136.83 40.8218C136.007 39.9126 135.596 38.6571 135.596 37.0552V36.8232C135.596 35.2956 136.004 34.0741 136.821 33.1587C137.637 32.2371 138.75 31.7764 140.161 31.7764C141.354 31.7764 142.325 32.1258 143.074 32.8247C143.828 33.5174 144.224 34.4297 144.261 35.5615H142.137C142.112 34.9863 141.914 34.5132 141.543 34.1421C141.178 33.771 140.711 33.5854 140.142 33.5854C139.412 33.5854 138.849 33.8514 138.454 34.3833C138.058 34.909 137.857 35.71 137.851 36.7861V37.1479C137.851 38.2365 138.045 39.0498 138.435 39.5879C138.831 40.1198 139.4 40.3857 140.142 40.3857ZM140.467 27.75H143.037L140.467 30.561H138.658L140.467 27.75ZM150.273 36.9067C150.273 35.3605 150.632 34.1204 151.349 33.1865C152.067 32.2464 153.028 31.7764 154.234 31.7764C155.298 31.7764 156.158 32.1475 156.813 32.8896V27.75H159.068V42H157.027L156.916 40.9609C156.241 41.7773 155.341 42.1855 154.216 42.1855C153.041 42.1855 152.088 41.7124 151.358 40.7661C150.635 39.8198 150.273 38.5334 150.273 36.9067ZM152.527 37.1016C152.527 38.1221 152.722 38.9199 153.112 39.4951C153.508 40.0641 154.067 40.3486 154.791 40.3486C155.713 40.3486 156.387 39.9373 156.813 39.1147V34.8286C156.399 34.0246 155.731 33.6226 154.81 33.6226C154.08 33.6226 153.517 33.9132 153.121 34.4946C152.725 35.0698 152.527 35.9388 152.527 37.1016ZM160.998 36.8882C160.998 35.9048 161.192 35.0203 161.582 34.2349C161.972 33.4432 162.519 32.8371 163.224 32.4165C163.929 31.9897 164.739 31.7764 165.655 31.7764C167.009 31.7764 168.107 32.2124 168.948 33.0845C169.796 33.9565 170.253 35.1131 170.321 36.5542L170.331 37.083C170.331 38.0726 170.139 38.957 169.755 39.7363C169.378 40.5156 168.834 41.1187 168.123 41.5454C167.417 41.9722 166.601 42.1855 165.673 42.1855C164.257 42.1855 163.122 41.7155 162.269 40.7754C161.421 39.8291 160.998 38.5705 160.998 36.9995V36.8882ZM163.252 37.083C163.252 38.1159 163.465 38.9261 163.892 39.5137C164.319 40.0951 164.913 40.3857 165.673 40.3857C166.434 40.3857 167.025 40.0889 167.445 39.4951C167.872 38.9014 168.085 38.0324 168.085 36.8882C168.085 35.8739 167.866 35.0698 167.427 34.4761C166.994 33.8823 166.403 33.5854 165.655 33.5854C164.919 33.5854 164.334 33.8792 163.901 34.4668C163.468 35.0482 163.252 35.9202 163.252 37.083ZM96.251 59.083C96.251 60.6354 95.8984 61.8755 95.1934 62.8032C94.4883 63.7248 93.542 64.1855 92.3545 64.1855C91.2536 64.1855 90.3722 63.8237 89.7104 63.1001V67.8594H87.4561V53.9619H89.5342L89.627 54.9824C90.2887 54.1784 91.1886 53.7764 92.3267 53.7764C93.5513 53.7764 94.5099 54.234 95.2026 55.1494C95.9015 56.0586 96.251 57.3234 96.251 58.9438V59.083ZM94.0059 58.8882C94.0059 57.8862 93.8049 57.0915 93.4028 56.5039C93.007 55.9163 92.438 55.6226 91.6958 55.6226C90.7743 55.6226 90.1125 56.0029 89.7104 56.7637V61.2168C90.1187 61.9961 90.7866 62.3857 91.7144 62.3857C92.4318 62.3857 92.9915 62.0981 93.3936 61.5229C93.8018 60.9416 94.0059 60.0633 94.0059 58.8882ZM97.7446 58.8882C97.7446 57.9048 97.9395 57.0203 98.3291 56.2349C98.7188 55.4432 99.2661 54.8371 99.9712 54.4165C100.676 53.9897 101.486 53.7764 102.402 53.7764C103.756 53.7764 104.854 54.2124 105.695 55.0845C106.543 55.9565 107 57.1131 107.068 58.5542L107.078 59.083C107.078 60.0726 106.886 60.957 106.502 61.7363C106.125 62.5156 105.581 63.1187 104.87 63.5454C104.165 63.9722 103.348 64.1855 102.42 64.1855C101.004 64.1855 99.8691 63.7155 99.0156 62.7754C98.1683 61.8291 97.7446 60.5705 97.7446 58.9995V58.8882ZM99.999 59.083C99.999 60.1159 100.212 60.9261 100.639 61.5137C101.066 62.0951 101.66 62.3857 102.42 62.3857C103.181 62.3857 103.772 62.0889 104.192 61.4951C104.619 60.9014 104.833 60.0324 104.833 58.8882C104.833 57.8739 104.613 57.0698 104.174 56.4761C103.741 55.8823 103.15 55.5854 102.402 55.5854C101.666 55.5854 101.081 55.8792 100.648 56.4668C100.215 57.0482 99.999 57.9202 99.999 59.083ZM117.774 59.083C117.774 60.6354 117.422 61.8755 116.717 62.8032C116.012 63.7248 115.065 64.1855 113.878 64.1855C112.777 64.1855 111.896 63.8237 111.234 63.1001V67.8594H108.979V53.9619H111.058L111.15 54.9824C111.812 54.1784 112.712 53.7764 113.85 53.7764C115.075 53.7764 116.033 54.234 116.726 55.1494C117.425 56.0586 117.774 57.3234 117.774 58.9438V59.083ZM115.529 58.8882C115.529 57.8862 115.328 57.0915 114.926 56.5039C114.53 55.9163 113.961 55.6226 113.219 55.6226C112.298 55.6226 111.636 56.0029 111.234 56.7637V61.2168C111.642 61.9961 112.31 62.3857 113.238 62.3857C113.955 62.3857 114.515 62.0981 114.917 61.5229C115.325 60.9416 115.529 60.0633 115.529 58.8882ZM124.946 56.0215C124.649 55.972 124.343 55.9473 124.027 55.9473C122.994 55.9473 122.299 56.3431 121.94 57.1348V64H119.686V53.9619H121.838L121.894 55.0845C122.438 54.2124 123.192 53.7764 124.157 53.7764C124.479 53.7764 124.745 53.8197 124.955 53.9062L124.946 56.0215ZM128.777 62.2002H134.121V64H125.976V62.5249L131.069 55.7803H126.068V53.9619H133.926V55.3906L128.777 62.2002ZM140.198 64.1855C138.769 64.1855 137.609 63.7371 136.719 62.8403C135.834 61.9373 135.392 60.7375 135.392 59.2407V58.9624C135.392 57.9604 135.584 57.0667 135.967 56.2812C136.357 55.4896 136.901 54.8742 137.6 54.4351C138.299 53.9959 139.078 53.7764 139.938 53.7764C141.305 53.7764 142.359 54.2124 143.102 55.0845C143.85 55.9565 144.224 57.1904 144.224 58.7861V59.6953H137.665C137.733 60.5241 138.008 61.1797 138.491 61.6621C138.979 62.1445 139.592 62.3857 140.328 62.3857C141.361 62.3857 142.202 61.9683 142.851 61.1333L144.066 62.293C143.664 62.8929 143.126 63.3599 142.452 63.6938C141.784 64.0216 141.033 64.1855 140.198 64.1855ZM139.929 55.5854C139.31 55.5854 138.809 55.8019 138.426 56.2349C138.049 56.6678 137.807 57.2708 137.702 58.0439H141.998V57.877C141.948 57.1224 141.747 56.5534 141.395 56.1699C141.042 55.7803 140.553 55.5854 139.929 55.5854ZM145.56 58.9067C145.56 57.3605 145.919 56.1204 146.636 55.1865C147.354 54.2464 148.315 53.7764 149.521 53.7764C150.585 53.7764 151.445 54.1475 152.101 54.8896V49.75H154.355V64H152.314L152.203 62.9609C151.528 63.7773 150.629 64.1855 149.503 64.1855C148.328 64.1855 147.375 63.7124 146.646 62.7661C145.922 61.8198 145.56 60.5334 145.56 58.9067ZM147.814 59.1016C147.814 60.1221 148.009 60.9199 148.399 61.4951C148.795 62.0641 149.354 62.3486 150.078 62.3486C151 62.3486 151.674 61.9373 152.101 61.1147V56.8286C151.686 56.0246 151.018 55.6226 150.097 55.6226C149.367 55.6226 148.804 55.9132 148.408 56.4946C148.012 57.0698 147.814 57.9388 147.814 59.1016ZM158.799 53.9619L158.864 55.1216C159.606 54.2248 160.58 53.7764 161.786 53.7764C163.877 53.7764 164.94 54.9731 164.978 57.3667V64H162.723V57.4966C162.723 56.8595 162.584 56.3895 162.306 56.0864C162.034 55.7772 161.585 55.6226 160.96 55.6226C160.051 55.6226 159.374 56.0339 158.929 56.8564V64H156.674V53.9619H158.799ZM169.681 64H167.427V53.9619H169.681V64ZM167.288 51.355C167.288 51.0086 167.396 50.721 167.612 50.4922C167.835 50.2633 168.15 50.1489 168.559 50.1489C168.967 50.1489 169.282 50.2633 169.505 50.4922C169.728 50.721 169.839 51.0086 169.839 51.355C169.839 51.6951 169.728 51.9797 169.505 52.2085C169.282 52.4312 168.967 52.5425 168.559 52.5425C168.15 52.5425 167.835 52.4312 167.612 52.2085C167.396 51.9797 167.288 51.6951 167.288 51.355ZM176.565 64.1855C175.136 64.1855 173.977 63.7371 173.086 62.8403C172.201 61.9373 171.759 60.7375 171.759 59.2407V58.9624C171.759 57.9604 171.951 57.0667 172.334 56.2812C172.724 55.4896 173.268 54.8742 173.967 54.4351C174.666 53.9959 175.445 53.7764 176.305 53.7764C177.672 53.7764 178.727 54.2124 179.469 55.0845C180.217 55.9565 180.591 57.1904 180.591 58.7861V59.6953H174.032C174.1 60.5241 174.375 61.1797 174.858 61.6621C175.347 62.1445 175.959 62.3857 176.695 62.3857C177.728 62.3857 178.569 61.9683 179.218 61.1333L180.434 62.293C180.032 62.8929 179.493 63.3599 178.819 63.6938C178.151 64.0216 177.4 64.1855 176.565 64.1855ZM176.296 55.5854C175.677 55.5854 175.176 55.8019 174.793 56.2349C174.416 56.6678 174.174 57.2708 174.069 58.0439H178.365V57.877C178.315 57.1224 178.114 56.5534 177.762 56.1699C177.409 55.7803 176.921 55.5854 176.296 55.5854ZM184.701 53.9619V64.8906C184.701 65.9173 184.444 66.6997 183.931 67.2378C183.424 67.7821 182.679 68.0542 181.695 68.0542C181.281 68.0542 180.882 68.0016 180.499 67.8965V66.1152C180.734 66.1709 181 66.1987 181.296 66.1987C182.045 66.1987 182.428 65.7905 182.447 64.9741V53.9619H184.701ZM182.252 51.355C182.252 51.0086 182.36 50.721 182.577 50.4922C182.799 50.2633 183.115 50.1489 183.523 50.1489C183.931 50.1489 184.247 50.2633 184.469 50.4922C184.692 50.721 184.803 51.0086 184.803 51.355C184.803 51.6951 184.692 51.9797 184.469 52.2085C184.247 52.4312 183.931 52.5425 183.523 52.5425C183.115 52.5425 182.799 52.4312 182.577 52.2085C182.36 51.9797 182.252 51.6951 182.252 51.355ZM117.691 81.6953L116.689 82.7251V86H114.435V71.75H116.689V79.9697L117.394 79.0884L120.168 75.9619H122.877L119.147 80.146L123.276 86H120.669L117.691 81.6953ZM129.983 83.2725C129.983 82.8704 129.816 82.5643 129.482 82.354C129.155 82.1437 128.607 81.9582 127.84 81.7974C127.073 81.6366 126.433 81.4325 125.92 81.1851C124.794 80.6408 124.231 79.8522 124.231 78.8193C124.231 77.9535 124.596 77.2298 125.326 76.6484C126.056 76.0671 126.984 75.7764 128.109 75.7764C129.309 75.7764 130.277 76.0732 131.013 76.667C131.755 77.2607 132.126 78.0308 132.126 78.9771H129.872C129.872 78.5441 129.711 78.1854 129.39 77.9009C129.068 77.6102 128.641 77.4648 128.109 77.4648C127.615 77.4648 127.209 77.5793 126.894 77.8081C126.585 78.0369 126.43 78.3431 126.43 78.7266C126.43 79.0729 126.576 79.342 126.866 79.5337C127.157 79.7254 127.744 79.9202 128.629 80.1182C129.513 80.3099 130.206 80.5418 130.707 80.814C131.214 81.0799 131.588 81.4015 131.83 81.7788C132.077 82.1561 132.201 82.6138 132.201 83.1519C132.201 84.0549 131.826 84.7878 131.078 85.3506C130.33 85.9072 129.349 86.1855 128.137 86.1855C127.315 86.1855 126.582 86.0371 125.938 85.7402C125.295 85.4434 124.794 85.0352 124.436 84.5156C124.077 83.9961 123.897 83.4364 123.897 82.8364H126.087C126.118 83.3683 126.319 83.7796 126.69 84.0703C127.061 84.3548 127.553 84.4971 128.165 84.4971C128.759 84.4971 129.21 84.3857 129.52 84.1631C129.829 83.9342 129.983 83.6374 129.983 83.2725ZM136.57 86H134.316V75.9619H136.57V86ZM134.177 73.355C134.177 73.0086 134.285 72.721 134.501 72.4922C134.724 72.2633 135.04 72.1489 135.448 72.1489C135.856 72.1489 136.171 72.2633 136.394 72.4922C136.617 72.721 136.728 73.0086 136.728 73.355C136.728 73.6951 136.617 73.9797 136.394 74.2085C136.171 74.4312 135.856 74.5425 135.448 74.5425C135.04 74.5425 134.724 74.4312 134.501 74.2085C134.285 73.9797 134.177 73.6951 134.177 73.355ZM147.323 84.293C146.871 84.9486 146.296 85.4341 145.597 85.7495C145.059 86.0959 144.676 86.4144 144.447 86.7051C144.218 86.9958 144.104 87.2926 144.104 87.5957C144.104 88.0163 144.323 88.2266 144.762 88.2266C145.034 88.2266 145.313 88.1554 145.597 88.0132L145.792 89.3306C145.34 89.6027 144.83 89.7388 144.261 89.7388C143.674 89.7388 143.201 89.5687 142.842 89.2285C142.483 88.8883 142.304 88.4368 142.304 87.874C142.304 87.2432 142.551 86.6742 143.046 86.167C141.766 86.0866 140.72 85.6227 139.91 84.7754C139.106 83.9219 138.686 82.8302 138.648 81.5005V80.9624C138.648 79.9604 138.84 79.0667 139.224 78.2812C139.613 77.4896 140.158 76.8742 140.856 76.4351C141.555 75.9959 142.335 75.7764 143.194 75.7764C144.561 75.7764 145.616 76.2124 146.358 77.0845C147.106 77.9565 147.48 79.1904 147.48 80.7861V81.6953H140.921C140.989 82.5241 141.265 83.1797 141.747 83.6621C142.236 84.1445 142.848 84.3857 143.584 84.3857C144.617 84.3857 145.458 83.9683 146.107 83.1333L147.323 84.293ZM143.185 77.5854C142.567 77.5854 142.066 77.8019 141.682 78.2349C141.305 78.6678 141.064 79.2708 140.958 80.0439H145.254V79.877C145.204 79.1224 145.003 78.5534 144.651 78.1699C144.298 77.7803 143.81 77.5854 143.185 77.5854ZM148.844 80.9067C148.844 79.3481 149.209 78.105 149.939 77.1772C150.675 76.2433 151.649 75.7764 152.861 75.7764C154.006 75.7764 154.905 76.1753 155.561 76.9731L155.663 75.9619H157.695V85.6938C157.695 87.0112 157.284 88.0503 156.461 88.811C155.645 89.5718 154.541 89.9521 153.149 89.9521C152.413 89.9521 151.692 89.7975 150.987 89.4883C150.288 89.1852 149.757 88.7863 149.392 88.2915L150.458 86.937C151.151 87.7596 152.005 88.1709 153.019 88.1709C153.767 88.1709 154.358 87.9668 154.791 87.5586C155.224 87.1566 155.44 86.5628 155.44 85.7773V85.1001C154.791 85.8237 153.925 86.1855 152.843 86.1855C151.668 86.1855 150.706 85.7186 149.958 84.7847C149.215 83.8507 148.844 82.5581 148.844 80.9067ZM151.089 81.1016C151.089 82.1097 151.293 82.9045 151.702 83.4858C152.116 84.061 152.688 84.3486 153.418 84.3486C154.327 84.3486 155.001 83.959 155.44 83.1797V78.7637C155.014 78.0029 154.346 77.6226 153.437 77.6226C152.694 77.6226 152.116 77.9163 151.702 78.5039C151.293 79.0915 151.089 79.9574 151.089 81.1016ZM162.417 86H160.163V75.9619H162.417V86ZM160.023 73.355C160.023 73.0086 160.132 72.721 160.348 72.4922C160.571 72.2633 160.886 72.1489 161.294 72.1489C161.703 72.1489 162.018 72.2633 162.241 72.4922C162.463 72.721 162.575 73.0086 162.575 73.355C162.575 73.6951 162.463 73.9797 162.241 74.2085C162.018 74.4312 161.703 74.5425 161.294 74.5425C160.886 74.5425 160.571 74.4312 160.348 74.2085C160.132 73.9797 160.023 73.6951 160.023 73.355Z" fill="white"/>
</svg>
